# xmcd
#
# Track frame offsets:
#	150
#	14235
#	45022
#	75787
#	90130
#	103810
#	124477
#	148257
#	163592
#	178902
#	194047
#	210262
#
# Disc length: 3087 seconds
#
# Revision: 1
# Processed by: cddbd v1.5.2PL0 Copyright (c) Steve Scherf et al.
# Submitted via: audiograbber 1.83.01
#
DISCID=9d0c0d0c
DTITLE=Milt Jackson Orchestra - Big Bags
DYEAR=1962
DGENRE=Jazz
TTITLE0=Old Devil Moon
TTITLE1='Round Midnight (take 2)
TTITLE2='Round Midnight (take 1)
TTITLE3=The Dream is You
TTITLE4=You'd be so Nice to Come Home To
TTITLE5=Echoes
TTITLE6=If You Could See Me Now
TTITLE7=Star Eyes (take 5)
TTITLE8=Star Eyes (take 4)
TTITLE9=Namesake
TTITLE10=If I Should Lose You
TTITLE11=Later Than You Think
EXTD=
EXTT0=
EXTT1=
EXTT2=
EXTT3=
EXTT4=
EXTT5=
EXTT6=
EXTT7=
EXTT8=
EXTT9=
EXTT10=
EXTT11=
PLAYORDER=
